<svg width="25" height="23" viewBox="0 0 25 23" fill="none" xmlns="http://www.w3.org/2000/svg">
<g clip-path="url(#clip0)">
<path d="M18.3568 0H6.30499C2.99028 0 0.269531 2.59206 0.269531 5.76825V17.25C0.269531 20.4079 2.99028 23 6.30499 23H18.3568C21.6906 23 24.4114 20.4079 24.4114 17.2317V5.76825C24.4114 2.59206 21.6906 0 18.3568 0ZM15.5785 11.5H13.2985V18.619H10.4244V11.5H8.89162V8.57937H10.2328V7.3381C10.2328 6.16984 10.846 4.32619 13.4326 4.32619H15.7893V6.75397H14.1224C13.8541 6.75397 13.4901 6.91825 13.4901 7.48413V8.57937H15.8468L15.5785 11.5Z" fill="#70FFDA"/>
</g>
<defs>
<clipPath id="clip0">
<rect width="24.1418" height="23" fill="white" transform="translate(0.269531)"/>
</clipPath>
</defs>
</svg>
