<svg width="25" height="23" viewBox="0 0 25 23" fill="none" xmlns="http://www.w3.org/2000/svg">
<g clip-path="url(#clip0)">
<path d="M13.0178 23.0004C12.9378 23.0004 12.8579 23.0004 12.7774 23.0001C10.885 23.0045 9.13655 22.9587 7.43613 22.8601C5.87717 22.7697 4.45413 22.2564 3.32064 21.3759C2.22693 20.5262 1.48005 19.3774 1.10081 17.9616C0.770747 16.7291 0.753249 15.5192 0.736488 14.3489C0.724332 13.5093 0.711807 12.5143 0.709229 11.5025C0.711807 10.4865 0.724332 9.49158 0.736488 8.65192C0.753249 7.48185 0.770747 6.27194 1.10081 5.03922C1.48005 3.62348 2.22693 2.47464 3.32064 1.62498C4.45413 0.744442 5.87717 0.231175 7.43631 0.140805C9.13673 0.0423626 10.8856 -0.0036122 12.782 0.000774709C14.6749 -0.00308577 16.4228 0.0423626 18.1232 0.140805C19.6822 0.231175 21.1052 0.744442 22.2387 1.62498C23.3326 2.47464 24.0793 3.62348 24.4586 5.03922C24.7886 6.27177 24.8061 7.48185 24.8229 8.65192C24.835 9.49158 24.8478 10.4865 24.8502 11.4983V11.5025C24.8478 12.5143 24.835 13.5093 24.8229 14.3489C24.8061 15.519 24.7888 16.7289 24.4586 17.9616C24.0793 19.3774 23.3326 20.5262 22.2387 21.3759C21.1052 22.2564 19.6822 22.7697 18.1232 22.8601C16.4948 22.9545 14.8221 23.0004 13.0178 23.0004ZM12.7774 21.2032C14.639 21.2074 16.3482 21.1627 18.0087 21.0665C19.1875 20.9982 20.2095 20.6338 21.0469 19.9833C21.8208 19.3819 22.3539 18.5523 22.6311 17.5173C22.9059 16.4913 22.9217 15.3897 22.937 14.3244C22.949 13.4903 22.9615 12.5024 22.9641 11.5004C22.9615 10.4983 22.949 9.51053 22.937 8.67649C22.9217 7.61117 22.9059 6.50954 22.6311 5.48335C22.3539 4.44839 21.8208 3.61874 21.0469 3.01739C20.2095 2.36707 19.1875 2.00261 18.0087 1.93435C16.3482 1.83801 14.639 1.79361 12.7818 1.79747C10.9206 1.79326 9.21115 1.83801 7.55069 1.93435C6.37189 2.00261 5.34984 2.36707 4.51252 3.01739C3.73856 3.61874 3.20552 4.44839 2.92832 5.48335C2.65351 6.50954 2.63767 7.611 2.62239 8.67649C2.61041 9.51123 2.59789 10.4997 2.59531 11.5025C2.59789 12.501 2.61041 13.4896 2.62239 14.3244C2.63767 15.3897 2.65351 16.4913 2.92832 17.5173C3.20552 18.5523 3.73856 19.3819 4.51252 19.9833C5.34984 20.6336 6.37189 20.9981 7.55069 21.0663C9.21115 21.1627 10.921 21.2076 12.7774 21.2032ZM12.7324 17.1157C9.48264 17.1157 6.83844 14.5967 6.83844 11.5004C6.83844 8.40415 9.48264 5.88519 12.7324 5.88519C15.9824 5.88519 18.6265 8.40415 18.6265 11.5004C18.6265 14.5967 15.9824 17.1157 12.7324 17.1157ZM12.7324 7.68207C10.5226 7.68207 8.72452 9.39507 8.72452 11.5004C8.72452 13.6058 10.5226 15.3188 12.7324 15.3188C14.9425 15.3188 16.7404 13.6058 16.7404 11.5004C16.7404 9.39507 14.9425 7.68207 12.7324 7.68207ZM19.2866 4.08832C18.5054 4.08832 17.872 4.6916 17.872 5.43597C17.872 6.18034 18.5054 6.78363 19.2866 6.78363C20.0679 6.78363 20.7011 6.18034 20.7011 5.43597C20.7011 4.6916 20.0679 4.08832 19.2866 4.08832Z" fill="#70FFDA"/>
</g>
<defs>
<clipPath id="clip0">
<rect width="24.1418" height="23" fill="white" transform="translate(0.709229)"/>
</clipPath>
</defs>
</svg>
